<svg width="30" height="27" viewBox="0 0 30 27" fill="none" xmlns="http://www.w3.org/2000/svg">
<path d="M27.2843 10.1112L21.1211 15.5229H5.85658C4.43278 15.521 3.05748 16.0277 1.98999 16.9473L9.68879 10.1856L9.80691 10.0835L19.4525 1.60547C21.0077 0.239882 23.1912 -0.212075 25.1805 0.419845C27.1697 1.05176 28.6625 2.67156 29.0964 4.66906C29.5304 6.66657 28.8396 8.73831 27.2843 10.1039V10.1112Z" fill="#F15B41"/>
<path d="M5.85671 11.5799C9.09128 11.5799 11.7134 9.02043 11.7134 5.86319C11.7134 2.70594 9.09128 0.146484 5.85671 0.146484C2.62214 0.146484 0 2.70594 0 5.86319C0 9.02043 2.62214 11.5799 5.85671 11.5799Z" fill="#F99D1D"/>
<path d="M5.85673 15.5228C4.43293 15.521 3.05762 16.0276 1.99014 16.9473L1.9408 16.991C-0.463868 19.1021 -0.66001 22.7161 1.5027 25.0633C3.66541 27.4105 7.368 27.602 9.77267 25.4909L21.1227 15.5243L5.85673 15.5228Z" fill="#272560"/>
<path d="M21.1132 15.5272L9.76196 25.4939C8.68712 26.4373 7.29161 26.9574 5.84613 26.9534L23.359 26.9533C26.737 26.9006 29.1219 24.42 29.1219 21.2373C29.1219 18.0547 26.5566 15.5712 23.359 15.5214L21.1132 15.5272Z" fill="#00B6BD"/>
</svg>
