<svg width="36" height="22" viewBox="0 0 36 22" fill="none" xmlns="http://www.w3.org/2000/svg">
<g clip-path="url(#clip0_1:96)">
<path d="M0.957642 2.76611C0.957642 1.2503 2.22883 0.0214844 3.79691 0.0214844H32.1896C33.7577 0.0214844 35.0289 1.2503 35.0289 2.76611V19.2339C35.0289 20.7497 33.7577 21.9785 32.1896 21.9785H3.79691C2.22883 21.9785 0.957642 20.7497 0.957642 19.2339V2.76611Z" fill="#CCDEFF"/>
<path d="M8.60298 7.92412C8.24711 7.68763 7.78272 7.56909 7.20981 7.56909H4.99184C4.81621 7.56909 4.71918 7.654 4.70075 7.82365L3.79976 13.2908C3.7904 13.3445 3.8043 13.3936 3.84133 13.4383C3.87815 13.483 3.92446 13.5053 3.97993 13.5053H5.03345C5.21823 13.5053 5.31979 13.4206 5.33844 13.2507L5.58792 11.7768C5.59703 11.7053 5.62953 11.6472 5.68499 11.6025C5.74042 11.5579 5.80973 11.5287 5.89291 11.5153C5.97608 11.502 6.05451 11.4953 6.12858 11.4953C6.20243 11.4953 6.29018 11.4999 6.392 11.5088C6.49357 11.5177 6.55831 11.522 6.58606 11.522C7.38078 11.522 8.00457 11.3056 8.45748 10.8721C8.91017 10.439 9.13678 9.83825 9.13678 9.06978C9.13678 8.54272 8.95869 8.16087 8.60298 7.924V7.92412ZM7.45942 9.56575C7.41307 9.87848 7.29307 10.0838 7.09901 10.1821C6.90491 10.2806 6.62767 10.3296 6.2673 10.3296L5.80982 10.3429L6.04553 8.90906C6.06392 8.81088 6.12396 8.76173 6.22569 8.76173H6.48916C6.85864 8.76173 7.12681 8.81322 7.29316 8.91578C7.45942 9.01859 7.51489 9.2353 7.45942 9.56575Z" fill="#003087"/>
<path d="M32.0091 7.56909H30.9834C30.8815 7.56909 30.8215 7.61824 30.8031 7.71659L29.9021 13.2911L29.8882 13.3179C29.8882 13.3628 29.9067 13.405 29.9437 13.4452C29.9805 13.4854 30.0269 13.5055 30.0823 13.5055H30.9973C31.1726 13.5055 31.2697 13.4208 31.2885 13.2509L32.1895 7.7702V7.75689C32.1894 7.63176 32.1292 7.56926 32.0091 7.56926V7.56909Z" fill="#009CDE"/>
<path d="M19.6162 9.72787C19.6162 9.68331 19.5976 9.6408 19.5609 9.6007C19.5238 9.56052 19.4822 9.54028 19.4361 9.54028H18.3687C18.2669 9.54028 18.1837 9.58517 18.1191 9.67426L16.6498 11.7648L16.0398 9.75474C15.9934 9.61192 15.8919 9.54028 15.7349 9.54028H14.695C14.6487 9.54028 14.6072 9.56044 14.5704 9.6007C14.5333 9.6408 14.515 9.68339 14.515 9.72787C14.515 9.74586 14.6051 10.0093 14.7852 10.5185C14.9654 11.0279 15.1595 11.5773 15.3674 12.1669C15.5754 12.7565 15.6839 13.0693 15.6932 13.1047C14.9353 14.1054 14.5566 14.6414 14.5566 14.7128C14.5566 14.829 14.6165 14.887 14.7368 14.887H15.8042C15.9058 14.887 15.9889 14.8424 16.0537 14.7531L19.5887 9.82163C19.607 9.80394 19.6162 9.77281 19.6162 9.72783V9.72787Z" fill="#003087"/>
<path d="M29.5563 9.53838H28.5028C28.3733 9.53838 28.295 9.68583 28.2672 9.98069C28.0267 9.62345 27.588 9.44458 26.9502 9.44458C26.2848 9.44458 25.7187 9.68583 25.2521 10.1682C24.7854 10.6507 24.5521 11.2181 24.5521 11.8702C24.5521 12.3974 24.7115 12.8172 25.0303 13.1297C25.3491 13.4426 25.7765 13.5988 26.3127 13.5988C26.5806 13.5988 26.8532 13.5451 27.1305 13.438C27.4077 13.3308 27.6247 13.1879 27.7821 13.0092C27.7821 13.0181 27.7726 13.0582 27.7544 13.1296C27.7357 13.2012 27.7266 13.255 27.7266 13.2904C27.7266 13.4335 27.7865 13.5048 27.9068 13.5048H28.8634C29.0388 13.5048 29.1406 13.4201 29.1682 13.2502L29.7366 9.75276C29.7457 9.6991 29.7319 9.65007 29.695 9.60534C29.6579 9.56078 29.6118 9.53838 29.5563 9.53838ZM27.7474 12.1784C27.5117 12.4017 27.2275 12.5133 26.8948 12.5133C26.6267 12.5133 26.4097 12.442 26.2433 12.2989C26.0768 12.1563 25.9937 11.9598 25.9937 11.7093C25.9937 11.379 26.1092 11.0996 26.3403 10.8718C26.5711 10.644 26.8578 10.5302 27.1998 10.5302C27.4583 10.5302 27.6732 10.6038 27.8443 10.7512C28.0151 10.8986 28.1009 11.1019 28.1009 11.361C28.1008 11.6826 27.983 11.9551 27.7474 12.1784Z" fill="#009CDE"/>
<path d="M13.8085 9.53838H12.7549C12.6254 9.53838 12.547 9.68583 12.5192 9.98069C12.2697 9.62345 11.8307 9.44458 11.2023 9.44458C10.5369 9.44458 9.97078 9.68583 9.50415 10.1682C9.03739 10.6507 8.80414 11.2181 8.80414 11.8702C8.80414 12.3974 8.96358 12.8172 9.28242 13.1297C9.60127 13.4426 10.0286 13.5988 10.5647 13.5988C10.8233 13.5988 11.0915 13.5451 11.3686 13.438C11.6459 13.3308 11.8677 13.1879 12.034 13.0092C11.997 13.1163 11.9786 13.2101 11.9786 13.2904C11.9786 13.4335 12.0386 13.5048 12.1588 13.5048H13.1153C13.2907 13.5048 13.3925 13.4201 13.4203 13.2502L13.9886 9.75276C13.9977 9.6991 13.9839 9.65007 13.947 9.60534C13.91 9.56078 13.8639 9.53838 13.8085 9.53838ZM11.9995 12.185C11.7638 12.4041 11.4748 12.5133 11.1331 12.5133C10.8649 12.5133 10.6501 12.442 10.4885 12.2989C10.3267 12.1563 10.2459 11.9598 10.2459 11.7093C10.2459 11.379 10.3613 11.0996 10.5925 10.8718C10.8233 10.644 11.1098 10.5301 11.4519 10.5301C11.7105 10.5301 11.9254 10.6038 12.0965 10.7512C12.2674 10.8986 12.353 11.1019 12.353 11.361C12.3529 11.6916 12.2351 11.9663 11.9995 12.185Z" fill="#003087"/>
<path d="M24.3506 7.92412C23.9947 7.68763 23.5305 7.56909 22.9574 7.56909H20.7533C20.5684 7.56909 20.4667 7.654 20.4483 7.82365L19.5473 13.2908C19.5379 13.3445 19.5518 13.3936 19.5889 13.4383C19.6255 13.483 19.672 13.5053 19.7274 13.5053H20.8641C20.975 13.5053 21.0489 13.4473 21.0859 13.3311L21.3355 11.7768C21.3447 11.7053 21.377 11.6472 21.4325 11.6025C21.488 11.5579 21.5572 11.5287 21.6405 11.5153C21.7236 11.502 21.802 11.4953 21.8761 11.4953C21.95 11.4953 22.0377 11.4999 22.1394 11.5088C22.2411 11.5177 22.306 11.522 22.3335 11.522C23.1284 11.522 23.7521 11.3056 24.205 10.8721C24.6578 10.439 24.8842 9.83825 24.8842 9.06978C24.8843 8.54272 24.7063 8.16082 24.3506 7.924V7.92412ZM22.9297 10.1285C22.7264 10.2625 22.4213 10.3294 22.0148 10.3294L21.5712 10.3429L21.8068 8.90898C21.8251 8.81084 21.8852 8.76161 21.987 8.76161H22.2364C22.4398 8.76161 22.6015 8.77058 22.7218 8.7884C22.8417 8.80634 22.9574 8.86208 23.0683 8.95584C23.1793 9.04967 23.2347 9.18598 23.2347 9.36456C23.2347 9.73991 23.1329 9.99439 22.9297 10.1285Z" fill="#009CDE"/>
</g>
<defs>
<clipPath id="clip0_1:96">
<rect width="34.0712" height="21.957" fill="white" transform="translate(0.957642 0.0214844)"/>
</clipPath>
</defs>
</svg>
