<svg width="22" height="22" viewBox="0 0 22 22" fill="none" xmlns="http://www.w3.org/2000/svg">
<g opacity="0.5">
<path d="M18.8159 2.50439H3.18395C2.80802 2.50439 2.5043 2.80811 2.5043 3.18404V18.816C2.5043 19.1919 2.80802 19.4956 3.18395 19.4956H18.8159C19.1918 19.4956 19.4955 19.1919 19.4955 18.816V3.18404C19.4955 2.80811 19.1918 2.50439 18.8159 2.50439ZM16.8534 7.46371H15.4962C14.4322 7.46371 14.2261 7.9692 14.2261 8.71257V10.3501H16.7663L16.435 12.9137H14.2261V19.4956H11.5776V12.9158H9.36239V10.3501H11.5776V8.45982C11.5776 6.26583 12.9178 5.07007 14.8761 5.07007C15.8148 5.07007 16.6198 5.14016 16.8555 5.17202V7.46371H16.8534Z" fill="white"/>
</g>
</svg>
