<svg width="35" height="22" viewBox="0 0 35 22" fill="none" xmlns="http://www.w3.org/2000/svg">
<g clip-path="url(#clip0_1:111)">
<path d="M0.657104 2.76611C0.657104 1.2503 1.92829 0.0214844 3.49637 0.0214844H31.8891C33.4572 0.0214844 34.7283 1.2503 34.7283 2.76611V19.2339C34.7283 20.7497 33.4572 21.9785 31.8891 21.9785H3.49637C1.92829 21.9785 0.657104 20.7497 0.657104 19.2339V2.76611Z" fill="#FCE0CF"/>
<path d="M20.9437 10.9854C20.9463 10.3955 20.7175 9.80471 20.257 9.35953C19.7955 8.91343 19.1829 8.69243 18.5714 8.69598C18.5685 8.69598 18.5656 8.6958 18.5626 8.6958C17.2347 8.6958 16.1814 9.71374 16.1814 10.9977C16.1814 12.2691 17.2477 13.2995 18.5626 13.2995C19.8908 13.2995 20.944 12.2814 20.944 10.9977C20.944 10.9935 20.9437 10.9895 20.9437 10.9854Z" fill="#F26E21"/>
<path d="M15.7391 11.9721C15.3832 12.3165 15.0547 12.4511 14.7008 12.4584C13.8389 12.4509 13.2051 11.8338 13.2051 10.954C13.2051 10.5112 13.3786 10.1482 13.6534 9.83814C13.9111 9.60166 14.243 9.44886 14.6248 9.44886C15.0369 9.44886 15.3576 9.58164 15.7237 9.93579V8.91766C15.3576 8.74068 15.0368 8.6521 14.6248 8.6521C14.0427 8.69232 13.4938 8.91969 13.0728 9.27671C12.9514 9.38225 12.8352 9.49875 12.7366 9.63208C12.429 10.0174 12.2432 10.4892 12.2432 10.9985C12.2432 12.282 13.2968 13.2559 14.6247 13.2559C14.6312 13.2559 14.6376 13.2554 14.6439 13.2553C14.6528 13.2554 14.6616 13.2559 14.6705 13.2559C15.0367 13.2559 15.3576 13.1676 15.7697 12.9905L15.7391 11.9721C15.7236 11.987 15.7544 12.0009 15.7391 12.0151V11.9721Z" fill="#2B2B2B"/>
<path d="M23.9499 9.28646L22.9129 11.7512L21.7221 8.82935H20.7606L22.6381 13.3004H23.1418L25.111 8.82935H24.1494L23.9499 9.28646Z" fill="#2B2B2B"/>
<path d="M25.478 10.7772V13.1678H27.951H27.9966V12.4593H27.2182H26.3939V11.6627V11.2644H27.951V10.5116H26.3939V9.58203H27.9966V8.82935H25.478V10.7772Z" fill="#2B2B2B"/>
<path d="M4.77882 8.83032H3.49634V13.1688H4.77876C5.46556 13.1688 5.96922 12.9916 6.38137 12.6817C6.88503 12.2833 7.20573 11.6637 7.20573 10.9998C7.20579 9.71566 6.24394 8.83032 4.77882 8.83032ZM5.83199 12.1064C5.5572 12.3276 5.19084 12.4603 4.64127 12.4603H4.36648V9.58294H4.59542C5.14499 9.58294 5.51135 9.67146 5.7862 9.93697C6.10671 10.2024 6.28999 10.6011 6.28999 10.9996C6.33577 11.398 6.15262 11.8405 5.83199 12.1064Z" fill="#2B2B2B"/>
<path d="M8.48825 8.8291H7.61816V13.1675H8.48825V8.8291Z" fill="#2B2B2B"/>
<path d="M10.6864 10.5121C10.137 10.3351 9.99942 10.2022 9.99942 9.98093C9.99942 9.71531 10.2742 9.494 10.6406 9.494C10.9154 9.494 11.1443 9.58258 11.3733 9.84821L11.8314 9.27276C11.4649 8.96275 11.0071 8.78589 10.5033 8.78589C9.72464 8.78589 9.08349 9.31714 9.08349 10.0252C9.08349 10.6451 9.35853 10.9107 10.1827 11.2205C10.5491 11.3531 10.6865 11.3976 10.7782 11.4861C10.9611 11.5745 11.0528 11.7517 11.0528 11.9286C11.0528 12.2828 10.7782 12.5485 10.3658 12.5485C9.95332 12.5485 9.58728 12.3272 9.40406 11.973L8.85449 12.5042C9.26683 13.0797 9.77055 13.3452 10.4117 13.3452C11.3275 13.3452 11.9683 12.7698 11.9683 11.9286C11.9685 11.1762 11.6939 10.8663 10.6864 10.5121Z" fill="#2B2B2B"/>
<path d="M30.47 11.3526C31.1567 11.22 31.5232 10.7771 31.5232 10.1133C31.5232 9.31658 30.9277 8.82935 29.9204 8.82935H28.5923V13.1678H29.4624V11.4412H29.5999L30.836 13.1678H31.8895L30.47 11.3526ZM29.737 10.8213H29.4624V9.49344H29.737C30.2866 9.49344 30.6073 9.71469 30.6073 10.1577C30.6073 10.6001 30.2867 10.8213 29.737 10.8213Z" fill="#2B2B2B"/>
</g>
<defs>
<clipPath id="clip0_1:111">
<rect width="34.0712" height="21.957" fill="white" transform="translate(0.657104 0.0214844)"/>
</clipPath>
</defs>
</svg>
