<svg width="34" height="22" viewBox="0 0 34 22" fill="none" xmlns="http://www.w3.org/2000/svg">
<g clip-path="url(#clip0_1:88)">
<path d="M0.0288696 2.76611C0.0288696 1.2503 1.27181 0.0214844 2.80504 0.0214844H30.5668C32.1 0.0214844 33.343 1.2503 33.343 2.76611V19.2339C33.343 20.7497 32.1 21.9785 30.5668 21.9785H2.80504C1.2718 21.9785 0.0288696 20.7497 0.0288696 19.2339V2.76611Z" fill="#D8E3F3"/>
<path d="M28.7 6.9043H26.9547C26.4271 6.9043 26.0212 7.0648 25.7777 7.58644L22.4495 15.09H24.8036C24.8036 15.09 25.2095 14.0869 25.2906 13.8461C25.5342 13.8461 27.8476 13.8461 28.1723 13.8461C28.2535 14.127 28.4564 15.0499 28.4564 15.0499H30.567L28.7 6.9043ZM25.94 12.1608C26.143 11.6793 26.833 9.87363 26.833 9.87363C26.833 9.91376 27.0359 9.39212 27.1171 9.11123L27.2794 9.8335C27.2794 9.8335 27.7259 11.7997 27.8071 12.2009H25.94V12.1608Z" fill="#3362AB"/>
<path d="M22.6116 12.4035C22.6116 14.0888 21.0693 15.2124 18.6746 15.2124C17.6599 15.2124 16.6858 15.0117 16.1582 14.771L16.4829 12.9252L16.767 13.0456C17.4976 13.3666 17.9846 13.4869 18.8776 13.4869C19.527 13.4869 20.2169 13.2462 20.2169 12.6844C20.2169 12.3233 19.9328 12.0825 19.0399 11.6813C18.1876 11.28 17.0511 10.638 17.0511 9.47434C17.0511 7.86929 18.634 6.78589 20.8663 6.78589C21.7187 6.78589 22.4492 6.94639 22.8957 7.14702L22.571 8.91257L22.4087 8.75207C22.0028 8.59156 21.4751 8.43106 20.704 8.43106C19.8517 8.47119 19.4458 8.83232 19.4458 9.15333C19.4458 9.51446 19.9328 9.79535 20.704 10.1565C22.0028 10.7584 22.6116 11.4405 22.6116 12.4035Z" fill="#3362AB"/>
<path d="M2.80499 6.98594L2.84558 6.82544H6.33609C6.82314 6.82544 7.18843 6.98594 7.31019 7.50758L8.08135 11.1189C7.31019 9.19288 5.52434 7.62796 2.80499 6.98594Z" fill="#F9B50B"/>
<path d="M12.9925 6.90585L9.46137 15.0515H7.06672L5.03735 8.23001C6.4985 9.15291 7.71612 10.5975 8.16258 11.6006L8.4061 12.4433L10.5978 6.86572H12.9925V6.90585Z" fill="#3362AB"/>
<path d="M13.926 6.86572H16.1583L14.7377 15.0515H12.5054L13.926 6.86572Z" fill="#3362AB"/>
</g>
<defs>
<clipPath id="clip0_1:88">
<rect width="33.3141" height="21.957" fill="white" transform="translate(0.0288696 0.0214844)"/>
</clipPath>
</defs>
</svg>
