<svg width="19" height="19" viewBox="0 0 19 19" fill="none" xmlns="http://www.w3.org/2000/svg">
<path d="M4.95084 2.99153C3.79216 4.1485 3.11825 5.70376 3.06643 7.34035C3.01462 8.97695 3.5888 10.5717 4.67198 11.7997C5.75515 13.0276 7.26579 13.7963 8.89606 13.9492C10.4966 14.0992 12.0942 13.6446 13.375 12.6767L16.7062 16.0087L16.7062 16.0087C16.7891 16.0915 16.8874 16.1572 16.9957 16.2021C17.1039 16.2469 17.2199 16.27 17.3371 16.27C17.4542 16.27 17.5702 16.2469 17.6785 16.2021C17.7867 16.1572 17.885 16.0915 17.9679 16.0087C18.0507 15.9258 18.1164 15.8275 18.1613 15.7192C18.2061 15.611 18.2292 15.495 18.2292 15.3779C18.2292 15.2607 18.2061 15.1447 18.1613 15.0365C18.1164 14.9282 18.0507 14.8299 17.9679 14.747L17.9679 14.747L14.6361 11.4161C15.6014 10.1351 16.0541 8.53858 15.9032 6.93955C15.7494 5.31066 14.9809 3.80151 13.754 2.71913C12.5271 1.63674 10.9338 1.06244 9.2985 1.11304C7.66315 1.16365 6.10851 1.83536 4.95084 2.99153ZM4.95084 2.99153L5.0215 3.06229L4.95084 2.99153ZM12.7889 4.25378C13.2264 4.68428 13.5744 5.19715 13.8128 5.76281C14.0512 6.32848 14.1752 6.93574 14.1777 7.54956C14.1802 8.16339 14.0611 8.77164 13.8274 9.33923C13.5936 9.90681 13.2498 10.4225 12.8158 10.8565C12.3817 11.2906 11.866 11.6344 11.2984 11.8682C10.7308 12.1019 10.1226 12.221 9.50877 12.2185C8.89494 12.216 8.28768 12.092 7.72202 11.8536C7.15636 11.6152 6.64349 11.2672 6.21299 10.8297C5.35268 9.95522 4.87275 8.77625 4.87774 7.54956C4.88274 6.32288 5.37225 5.14786 6.23966 4.28045C7.10706 3.41304 8.28208 2.92353 9.50877 2.91854C10.7355 2.91354 11.9144 3.39347 12.7889 4.25378Z" fill="black" stroke="black" stroke-width="0.2"/>
</svg>
