<svg width="11" height="10" viewBox="0 0 11 10" fill="none" xmlns="http://www.w3.org/2000/svg">
<circle cx="5.5" cy="5" r="5" fill="#C94D3F"/>
<path d="M6.17703 5.85626L6.52703 5.50626C6.57417 5.4597 6.63381 5.42783 6.69871 5.41452C6.76362 5.4012 6.83099 5.40702 6.89265 5.43126L7.31921 5.60157C7.38153 5.62686 7.43496 5.67004 7.47277 5.72565C7.51059 5.78126 7.5311 5.84682 7.53171 5.91407V6.69532C7.53135 6.74107 7.52173 6.78627 7.50344 6.8282C7.48515 6.87013 7.45856 6.90793 7.42528 6.93931C7.39199 6.9707 7.3527 6.99502 7.30977 7.01083C7.26684 7.02663 7.22115 7.03358 7.17546 7.03126C4.1864 6.84532 3.58328 4.31407 3.46921 3.34532C3.46392 3.29775 3.46876 3.24959 3.48341 3.20402C3.49806 3.15846 3.52219 3.11651 3.55422 3.08093C3.58625 3.04536 3.62545 3.01698 3.66924 2.99764C3.71303 2.97831 3.76041 2.96846 3.80828 2.96876H4.56296C4.63031 2.96896 4.69605 2.9893 4.75174 3.02717C4.80743 3.06504 4.85052 3.1187 4.87546 3.18126L5.04578 3.60782C5.07082 3.66924 5.0772 3.73667 5.06414 3.8017C5.05108 3.86672 5.01915 3.92646 4.97234 3.97344L4.62234 4.32344C4.62234 4.32344 4.8239 5.68751 6.17703 5.85626Z" fill="white"/>
</svg>
