<svg width="77" height="27" viewBox="0 0 77 27" fill="none" xmlns="http://www.w3.org/2000/svg">
<path d="M27.2843 10.1112L21.1211 15.5229H5.85658C4.43278 15.521 3.05748 16.0277 1.98999 16.9473L9.68879 10.1856L9.80691 10.0835L19.4525 1.60547C21.0077 0.239882 23.1912 -0.212075 25.1805 0.419845C27.1697 1.05176 28.6625 2.67156 29.0964 4.66906C29.5304 6.66657 28.8396 8.73831 27.2843 10.1039V10.1112Z" fill="#F15B41"/>
<path d="M5.85671 11.5799C9.09128 11.5799 11.7134 9.02043 11.7134 5.86319C11.7134 2.70594 9.09128 0.146484 5.85671 0.146484C2.62214 0.146484 0 2.70594 0 5.86319C0 9.02043 2.62214 11.5799 5.85671 11.5799Z" fill="#F99D1D"/>
<path d="M5.85673 15.5228C4.43293 15.521 3.05762 16.0276 1.99014 16.9473L1.9408 16.991C-0.463868 19.1021 -0.66001 22.7161 1.5027 25.0633C3.66541 27.4105 7.368 27.602 9.77267 25.4909L21.1227 15.5243L5.85673 15.5228Z" fill="#272560"/>
<path d="M21.1132 15.5272L9.76196 25.4939C8.68712 26.4373 7.29161 26.9574 5.84613 26.9534L23.359 26.9533C26.737 26.9006 29.1219 24.42 29.1219 21.2373C29.1219 18.0547 26.5566 15.5712 23.359 15.5214L21.1132 15.5272Z" fill="#00B6BD"/>
<path d="M37.6125 22.1743C37.1249 22.1919 36.6532 22.0042 36.318 21.6591C35.9899 21.3108 35.8149 20.8514 35.8306 20.3792C35.826 19.9036 35.9468 19.4347 36.1815 19.0175C36.3877 18.6444 36.6396 18.297 36.9315 17.9828L44.1777 10.0112H37.8615C37.2495 10.0112 36.8115 9.80687 36.5715 9.40114C36.3379 8.99356 36.2213 8.53228 36.234 8.06573C36.2172 7.6161 36.3503 7.17322 36.6135 6.8033C36.8744 6.45323 37.299 6.2546 37.743 6.27498H48.9026C49.3744 6.25382 49.8346 6.42153 50.176 6.73909C50.4925 7.04703 50.653 7.48487 50.653 8.03946C50.6664 8.47133 50.5738 8.90008 50.383 9.29022C50.1999 9.63014 49.9704 9.94434 49.7006 10.2243L42.1543 18.4367H49.3046C49.7347 18.4262 50.1442 18.616 50.407 18.9475C50.6871 19.3181 50.8284 19.7708 50.8075 20.2303C50.8279 20.7091 50.71 21.1839 50.467 21.6008C50.2225 21.9817 49.789 22.1758 49.1801 22.1758L37.6125 22.1743Z" fill="#272560"/>
<path d="M55.1424 22.3845C53.1565 22.3845 52.7425 21.392 52.7425 20.5601V8.41743C52.7425 7.78256 52.939 7.26883 53.329 6.89083C53.7189 6.51283 54.3399 6.32018 55.1769 6.32018C55.8819 6.32018 56.4398 6.47635 56.8373 6.78575C57.2348 7.09516 57.4553 7.59429 57.4553 8.23645V20.4959C57.4553 21.1629 57.2393 21.6533 56.8133 21.9554C56.3873 22.2575 55.8399 22.3845 55.1424 22.3845ZM55.1424 5.01689C54.3684 5.01689 53.7339 4.79651 53.254 4.36159C52.774 3.92667 52.5235 3.32683 52.5235 2.58981C52.5051 1.9364 52.7689 1.3054 53.251 0.85013C53.7264 0.396239 54.3639 0.164185 55.1424 0.164185C55.7844 0.165547 56.4084 0.370495 56.9198 0.747968C57.4778 1.14786 57.7613 1.76959 57.7613 2.59564C57.7613 3.33267 57.5153 3.92959 57.0308 4.36889C56.5463 4.80818 55.9119 5.02127 55.1424 5.02127V5.01689Z" fill="#272560"/>
<path d="M62.6331 27.0375C60.7762 27.0375 60.3832 26.029 60.3832 25.1825V8.00591C60.3671 7.46791 60.5799 6.9473 60.9711 6.56687C61.3596 6.18886 61.9821 5.99621 62.8191 5.99621C63.3397 5.99107 63.854 6.10716 64.319 6.33481C64.8125 6.58146 65.069 7.06455 65.069 7.7578C65.169 7.6459 65.2765 7.53109 65.3915 7.41336C65.7067 7.102 66.0592 6.82858 66.4414 6.59898C67.3705 6.03477 68.4468 5.74291 69.5418 5.75832C70.5911 5.73848 71.6307 5.95738 72.5777 6.39757C73.4444 6.81383 74.199 7.4216 74.7811 8.17229C75.3879 8.97522 75.8308 9.88382 76.0861 10.849C76.3781 11.9395 76.5213 13.0628 76.5121 14.1897C76.5228 15.3376 76.358 16.4808 76.0231 17.5815C75.7272 18.5593 75.2414 19.4729 74.5922 20.2728C73.9666 21.0265 73.1738 21.6327 72.2732 22.0461C71.2933 22.4833 70.2252 22.7012 69.1473 22.6838C68.4255 22.704 67.7054 22.6053 67.0174 22.392C66.5233 22.229 66.0537 22.0027 65.621 21.7191C65.3864 21.5642 65.1701 21.3846 64.976 21.1835V25.0949C64.976 25.775 64.7855 26.2771 64.409 26.5865C64.0325 26.8959 63.4536 27.0375 62.6331 27.0375ZM68.3419 9.64928C67.8308 9.63725 67.3251 9.75335 66.8734 9.98642C66.4484 10.2209 66.0841 10.5469 65.8085 10.9395C65.4988 11.3836 65.2728 11.8778 65.141 12.3989C64.9858 13.0046 64.9097 13.6268 64.9145 14.251C64.9145 15.6725 65.2145 16.8124 65.8145 17.6399C66.4144 18.4674 67.2289 18.8542 68.3479 18.8542C69.4668 18.8542 70.2813 18.4397 70.8468 17.5859C71.4123 16.7321 71.7138 15.5952 71.7138 14.251C71.7156 13.6285 71.637 13.0082 71.4798 12.4048C71.348 11.8859 71.1269 11.3924 70.8258 10.9453C70.558 10.5522 70.1981 10.2266 69.7758 9.99517C69.3363 9.76189 68.8425 9.64276 68.3419 9.64928Z" fill="#272560"/>
</svg>
