<svg width="42" height="27" viewBox="0 0 42 27" fill="none" xmlns="http://www.w3.org/2000/svg">
<path d="M2.61249 22.1743C2.1249 22.1919 1.65319 22.0042 1.31803 21.6591C0.989924 21.3108 0.81495 20.8514 0.83055 20.3792C0.825977 19.9036 0.946821 19.4347 1.18154 19.0175C1.38774 18.6444 1.63956 18.297 1.93151 17.9828L9.17775 10.0112H2.86148C2.2495 10.0112 1.81151 9.80687 1.57152 9.40114C1.33785 8.99356 1.22128 8.53228 1.23404 8.06573C1.21716 7.6161 1.35029 7.17322 1.61352 6.8033C1.87443 6.45323 2.29904 6.2546 2.74298 6.27498H13.9026C14.3744 6.25382 14.8346 6.42153 15.176 6.73909C15.4925 7.04703 15.653 7.48487 15.653 8.03946C15.6664 8.47133 15.5738 8.90008 15.383 9.29022C15.1999 9.63014 14.9704 9.94434 14.7006 10.2243L7.15432 18.4367H14.3046C14.7347 18.4262 15.1442 18.616 15.407 18.9475C15.6871 19.3181 15.8284 19.7708 15.8075 20.2303C15.8279 20.7091 15.71 21.1839 15.467 21.6008C15.2225 21.9817 14.789 22.1758 14.1801 22.1758L2.61249 22.1743Z" fill="#272560"/>
<path d="M20.1424 22.3845C18.1565 22.3845 17.7425 21.392 17.7425 20.5601V8.41743C17.7425 7.78256 17.939 7.26883 18.329 6.89083C18.7189 6.51283 19.3399 6.32018 20.1769 6.32018C20.8819 6.32018 21.4398 6.47635 21.8373 6.78575C22.2348 7.09516 22.4553 7.59429 22.4553 8.23645V20.4959C22.4553 21.1629 22.2393 21.6533 21.8133 21.9554C21.3873 22.2575 20.8399 22.3845 20.1424 22.3845ZM20.1424 5.01689C19.3684 5.01689 18.7339 4.79651 18.254 4.36159C17.774 3.92667 17.5235 3.32683 17.5235 2.58981C17.5051 1.9364 17.7689 1.3054 18.251 0.85013C18.7264 0.396239 19.3639 0.164185 20.1424 0.164185C20.7844 0.165547 21.4084 0.370495 21.9198 0.747968C22.4778 1.14786 22.7613 1.76959 22.7613 2.59564C22.7613 3.33267 22.5153 3.92959 22.0308 4.36889C21.5463 4.80818 20.9119 5.02127 20.1424 5.02127V5.01689Z" fill="#272560"/>
<path d="M27.6331 27.0375C25.7762 27.0375 25.3832 26.029 25.3832 25.1825V8.00591C25.3671 7.46791 25.5799 6.9473 25.9711 6.56687C26.3596 6.18886 26.9821 5.99621 27.8191 5.99621C28.3397 5.99107 28.854 6.10716 29.319 6.33481C29.8125 6.58146 30.069 7.06455 30.069 7.7578C30.169 7.6459 30.2765 7.53109 30.3915 7.41336C30.7067 7.102 31.0592 6.82858 31.4414 6.59898C32.3705 6.03477 33.4468 5.74291 34.5418 5.75832C35.5911 5.73848 36.6307 5.95738 37.5777 6.39757C38.4444 6.81383 39.199 7.4216 39.7811 8.17229C40.3879 8.97522 40.8308 9.88382 41.0861 10.849C41.3781 11.9395 41.5213 13.0628 41.5121 14.1897C41.5228 15.3376 41.358 16.4808 41.0231 17.5815C40.7272 18.5593 40.2414 19.4729 39.5922 20.2728C38.9666 21.0265 38.1738 21.6327 37.2732 22.0461C36.2933 22.4833 35.2252 22.7012 34.1473 22.6838C33.4255 22.704 32.7054 22.6053 32.0174 22.392C31.5233 22.229 31.0537 22.0027 30.621 21.7191C30.3864 21.5642 30.1701 21.3846 29.976 21.1835V25.0949C29.976 25.775 29.7855 26.2771 29.409 26.5865C29.0325 26.8959 28.4536 27.0375 27.6331 27.0375ZM33.3419 9.64928C32.8308 9.63725 32.3251 9.75335 31.8734 9.98642C31.4484 10.2209 31.0841 10.5469 30.8085 10.9395C30.4988 11.3836 30.2728 11.8778 30.141 12.3989C29.9858 13.0046 29.9097 13.6268 29.9145 14.251C29.9145 15.6725 30.2145 16.8124 30.8145 17.6399C31.4144 18.4674 32.2289 18.8542 33.3479 18.8542C34.4668 18.8542 35.2813 18.4397 35.8468 17.5859C36.4123 16.7321 36.7138 15.5952 36.7138 14.251C36.7156 13.6285 36.637 13.0082 36.4798 12.4048C36.348 11.8859 36.1269 11.3924 35.8258 10.9453C35.558 10.5522 35.1981 10.2266 34.7758 9.99517C34.3363 9.76189 33.8425 9.64276 33.3419 9.64928Z" fill="#272560"/>
</svg>
